<svg height="400" viewBox="0 0 300 300" width="400" xmlns="http://www.w3.org/2000/svg"><path d="m205.3 56.4c-10 2.5-16.3 6.4-25.8 16-9.9 10-16.5 20.3-22.5 34.8-2 4.9-3.9 9-4.2 9.3s-4.1-2.7-8.4-6.5c-4.7-4.2-10.9-8.6-15.3-10.8-7.2-3.6-7.9-3.7-18-3.7-9.4 0-11.3.3-16.2 2.6-17.4 8.2-24.1 25.5-16.2 42.1 1.9 4.1 5.8 9.5 10.3 14.4 8.6 9.2 10.5 12.8 9.6 17.7-1.9 10-13.8 14.7-24.3 9.6-5.3-2.6-6.1-5-3.4-10.9 1.1-2.5 2.1-6 2.1-7.8 0-9.1-8.9-14.9-16.9-10.8-8 4.2-6.6 20.6 2.5 28.6 8.2 7.1 22.9 11.7 33.8 10.5 13.3-1.5 25.1-9.3 29.6-19.7 5.3-12.3 2-22.4-12.4-39.1-11-12.6-12.3-18.2-5.7-24.7 5.7-5.8 16.3-5.6 26.6.5 4 2.3 18.7 14.9 19.3 16.5.2.4-1.3 7.3-3.2 15.2-1.9 7.8-4.9 21.9-6.6 31.3-8.9 48.9-17.1 67.9-32.5 75.1-5.6 2.7-8.5 3-10.3 1.2-1.7-1.7-1.6-2.1 2.8-6.6 4.5-4.6 5.1-7.7 2.2-13.1-2.1-4-7.3-7.1-11.7-7.1-3.8 0-10.2 3.6-12.9 7.3-1.6 2.2-2.1 4.3-2.1 8.7.1 5 .5 6.4 3.1 9.6 4.5 5.6 9.5 7.8 18.7 8.3 4.4.2 9.9-.2 12.5-.9 8.3-2.3 18.4-8.2 25.9-15.4 20.3-19.2 30.7-41.7 38.3-83.1 1.7-8.8 3.2-16.9 3.4-18 .5-1.8 1.2-2 7.8-1.7 13.8.6 27.6-4.2 34.2-11.9 5.9-6.9 6-14.7.3-19.5-4-3.4-9-2.8-12.9 1.6-3.3 3.6-3.5 5.8-.8 11.1 1.5 2.9 1.8 4.4 1.1 5.8-1.7 3.1-8.9 5.4-18.9 5.9l-9.3.4.6-3.8c6.3-35.7 12.6-52.7 22.4-59.8 5.2-3.7 15.7-5 18-2.2 1.2 1.4 1.1 2.3-.9 6.2-4 8.1-.8 15.4 7.5 17 4.7.9 10.5-2.1 12.8-6.6 2.4-4.6 1.8-11.6-1.3-16-5-7-20.7-10.7-32.7-7.6z"/></svg>